<?xml version="1.0" encoding="UTF-8" standalone="no"?>
<!-- Created with Inkscape (http://www.inkscape.org/) -->

<svg
   width="57.092632mm"
   height="57.092632mm"
   viewBox="0 0 57.092632 57.092632"
   version="1.1"
   id="svg5"
   inkscape:version="1.1 (c68e22c387, 2021-05-23)"
   sodipodi:docname="object_finder.svg"
   inkscape:export-filename="C:\Python-work\ptzpresets\play\object_finder.png"
   inkscape:export-xdpi="66.730003"
   inkscape:export-ydpi="66.730003"
   xmlns:inkscape="http://www.inkscape.org/namespaces/inkscape"
   xmlns:sodipodi="http://sodipodi.sourceforge.net/DTD/sodipodi-0.dtd"
   xmlns="http://www.w3.org/2000/svg"
   xmlns:svg="http://www.w3.org/2000/svg">
  <sodipodi:namedview
     id="namedview7"
     pagecolor="#ffffff"
     bordercolor="#666666"
     borderopacity="1.0"
     inkscape:pageshadow="2"
     inkscape:pageopacity="0.0"
     inkscape:pagecheckerboard="0"
     inkscape:document-units="mm"
     showgrid="false"
     inkscape:zoom="1.3416246"
     inkscape:cx="207.58415"
     inkscape:cy="39.131662"
     inkscape:window-width="1920"
     inkscape:window-height="1017"
     inkscape:window-x="-8"
     inkscape:window-y="-8"
     inkscape:window-maximized="1"
     inkscape:current-layer="layer1" />
  <defs
     id="defs2" />
  <g
     inkscape:label="Layer 1"
     inkscape:groupmode="layer"
     id="layer1"
     transform="translate(-9.3675279,-40.264672)">
    <path
       id="path868"
       style="fill:none;stroke:#ff0000;stroke-width:0.122238;stroke-miterlimit:4;stroke-dasharray:none"
       d="M 55.691391,68.86969 A 17.586639,17.586639 0 0 1 38.104752,86.456329 17.586639,17.586639 0 0 1 20.518112,68.86969 17.586639,17.586639 0 0 1 38.104752,51.283051 17.586639,17.586639 0 0 1 55.691391,68.86969 Z" />
    <circle
       style="fill:none;stroke:#ff0000;stroke-width:0.117243;stroke-miterlimit:4;stroke-dasharray:none"
       id="circle972"
       cx="38.104752"
       cy="68.86969"
       r="26.074959" />
    <path
       style="font-variation-settings:normal;opacity:1;vector-effect:none;fill:none;fill-opacity:1;stroke:#ff0000;stroke-width:0.136846;stroke-linecap:butt;stroke-linejoin:miter;stroke-miterlimit:4;stroke-dasharray:none;stroke-dashoffset:0;stroke-opacity:1;-inkscape-stroke:none;stop-color:#000000;stop-opacity:1"
       d="M 9.3675279,68.810988 H 66.460159"
       id="path1044" />
    <path
       style="font-variation-settings:normal;opacity:1;vector-effect:none;fill:none;fill-opacity:1;stroke:#ff0000;stroke-width:0.136846;stroke-linecap:butt;stroke-linejoin:miter;stroke-miterlimit:4;stroke-dasharray:none;stroke-dashoffset:0;stroke-opacity:1;-inkscape-stroke:none;stop-color:#000000;stop-opacity:1"
       d="M 37.913843,97.357304 V 40.264672"
       id="path1163" />
    <path
       style="font-variation-settings:normal;opacity:1;vector-effect:none;fill:none;fill-opacity:1;stroke:#ff0000;stroke-width:0.136846;stroke-linecap:butt;stroke-linejoin:miter;stroke-miterlimit:4;stroke-dasharray:none;stroke-dashoffset:0;stroke-opacity:1;-inkscape-stroke:none;stop-color:#000000;stop-opacity:1"
       d="M 58.099137,88.996282 17.728549,48.625694"
       id="path1165" />
    <path
       style="font-variation-settings:normal;opacity:1;vector-effect:none;fill:none;fill-opacity:1;stroke:#ff0000;stroke-width:0.136846;stroke-linecap:butt;stroke-linejoin:miter;stroke-miterlimit:4;stroke-dasharray:none;stroke-dashoffset:0;stroke-opacity:1;-inkscape-stroke:none;stop-color:#000000;stop-opacity:1"
       d="M 58.099137,48.625694 17.728549,88.996282"
       id="path1167" />
    <path
       id="path1169"
       style="fill:#ffffff;stroke:none;stroke-width:0.105846;stroke-miterlimit:4;stroke-dasharray:none"
       d="M 53.333053,68.86969 A 15.228301,15.228301 0 0 1 38.104752,84.097991 15.228301,15.228301 0 0 1 22.87645,68.86969 15.228301,15.228301 0 0 1 38.104752,53.641389 15.228301,15.228301 0 0 1 53.333053,68.86969 Z" />
    <path
       id="path1207"
       style="fill:none;stroke:#ffffff;stroke-width:4.46855;stroke-miterlimit:4;stroke-dasharray:none"
       d="M 60.53126,68.86969 A 22.426508,22.426508 0 0 1 38.104752,91.296198 22.426508,22.426508 0 0 1 15.678243,68.86969 22.426508,22.426508 0 0 1 38.104752,46.443182 22.426508,22.426508 0 0 1 60.53126,68.86969 Z" />
  </g>
</svg>
